<?xml version="1.0" encoding="UTF-8" standalone="no"?>
<!-- Generator: Adobe Illustrator 23.0.1, SVG Export Plug-In . SVG Version: 6.00 Build 0)  -->

<svg
   version="1.1"
   x="0px"
   y="0px"
   viewBox="0 0 512 512"
   style="enable-background:new 0 0 512 512;"
   xml:space="preserve"
   id="svg10"
   sodipodi:docname="clip-dark.svg"
   inkscape:version="1.2.2 (b0a8486541, 2022-12-01)"
   xmlns:inkscape="http://www.inkscape.org/namespaces/inkscape"
   xmlns:sodipodi="http://sodipodi.sourceforge.net/DTD/sodipodi-0.dtd"
   xmlns="http://www.w3.org/2000/svg"
   xmlns:svg="http://www.w3.org/2000/svg"><defs
   id="defs14" /><sodipodi:namedview
   id="namedview12"
   pagecolor="#505050"
   bordercolor="#eeeeee"
   borderopacity="1"
   inkscape:showpageshadow="0"
   inkscape:pageopacity="0"
   inkscape:pagecheckerboard="0"
   inkscape:deskcolor="#505050"
   showgrid="false"
   inkscape:zoom="1.6328125"
   inkscape:cx="144.53589"
   inkscape:cy="256.30622"
   inkscape:window-width="1920"
   inkscape:window-height="1017"
   inkscape:window-x="0"
   inkscape:window-y="32"
   inkscape:window-maximized="1"
   inkscape:current-layer="svg10" />
<style
   type="text/css"
   id="style2">
	.st0{fill:#333333;}
</style>
<g
   id="Layer_1">
</g>
<g
   id="Layer_2"
   style="fill:#f9f9f9;fill-opacity:1">
	<g
   id="g7"
   style="fill:#f9f9f9;fill-opacity:1">
		<path
   class="st0"
   d="M166.79,322.58c-6.25,6.25-6.25,16.38,0,22.63c6.25,6.25,16.38,6.25,22.63,0L264.62,270    c14.31-14.31,22.18-33.33,22.18-53.56s-7.88-39.25-22.18-53.56c-29.53-29.53-77.58-29.53-107.11,0l-65.64,65.64    c-52.83,52.83-52.83,138.78,0,191.6c26.42,26.42,61.1,39.62,95.8,39.62c34.69,0,69.39-13.21,95.8-39.62l136.67-136.67    c52.83-52.83,52.83-138.78,0-191.6c-52.82-52.83-138.78-52.82-191.6,0c-6.25,6.25-6.25,16.38,0,22.63    c3.12,3.13,7.22,4.69,11.31,4.69c4.09,0,8.19-1.56,11.31-4.69c40.35-40.35,106-40.35,146.35,0c40.35,40.35,40.35,106,0,146.35    L260.84,397.51c-20.18,20.18-46.67,30.26-73.17,30.26c-26.5,0-53-10.09-73.17-30.26c-40.35-40.35-40.35-106,0-146.35l65.64-65.64    c17.05-17.05,44.81-17.05,61.86,0c17.05,17.06,17.05,44.81,0,61.86L166.79,322.58z"
   id="path5"
   style="fill:#f9f9f9;fill-opacity:1" />
	</g>
</g>
</svg>
