<?xml version="1.0" encoding="UTF-8" standalone="no"?>
<svg
   width="24px"
   height="24px"
   viewBox="0 0 24 24"
   version="1.1"
   id="svg4"
   sodipodi:docname="favicon.svg"
   inkscape:export-filename="/home/idko/Documentos/infinityfree/notes/frontend/img/favicon.png"
   inkscape:export-xdpi="256"
   inkscape:export-ydpi="256"
   inkscape:version="1.1.2 (0a00cf5339, 2022-02-04)"
   xmlns:inkscape="http://www.inkscape.org/namespaces/inkscape"
   xmlns:sodipodi="http://sodipodi.sourceforge.net/DTD/sodipodi-0.dtd"
   xmlns="http://www.w3.org/2000/svg"
   xmlns:svg="http://www.w3.org/2000/svg">
  <defs
     id="defs8" />
  <sodipodi:namedview
     id="namedview6"
     pagecolor="#ffffff"
     bordercolor="#666666"
     borderopacity="1.0"
     inkscape:pageshadow="2"
     inkscape:pageopacity="0.0"
     inkscape:pagecheckerboard="0"
     showgrid="false"
     inkscape:lockguides="false"
     inkscape:zoom="22.627417"
     inkscape:cx="11.556776"
     inkscape:cy="6.9384853"
     inkscape:window-width="1318"
     inkscape:window-height="739"
     inkscape:window-x="42"
     inkscape:window-y="0"
     inkscape:window-maximized="1"
     inkscape:current-layer="svg4" />
  <rect
     style="fill:none;fill-opacity:1;stroke:none;stroke-linecap:round;stroke-linejoin:round"
     id="rect847"
     width="24.300537"
     height="24.214668"
     x="-0.15026855"
     y="-0.10733414" />
  <path
     d="M 20.873172,15.16899 V 3.760626 c 0,-1.0501109 -0.851283,-1.901394 -1.901394,-1.901394 H 5.028222 c -1.0501109,0 -1.901394,0.8512831 -1.901394,1.901394 v 16.478748 c 0,1.050111 0.8512831,1.901394 1.901394,1.901394 h 8.873172 c 1.050111,0 1.901394,-0.851283 1.901394,-1.901394 0,-1.750185 1.418805,-3.16899 3.16899,-3.16899 1.050111,0 1.901394,-0.851283 1.901394,-1.901394 z m -0.631971,2.904504 c -0.388659,0.170105 -0.81802,0.264486 -1.269423,0.264486 -1.050111,0 -1.901394,0.851283 -1.901394,1.901394 0,0.451403 -0.09439,0.880764 -0.264486,1.269423 1.51607,-0.695707 2.739596,-1.919233 3.435303,-3.435303 z M 1.859232,3.760626 c 0,-1.7501848 1.4188052,-3.16899 3.16899,-3.16899 h 13.943556 c 1.750185,0 3.16899,1.4188052 3.16899,3.16899 V 15.16899 c 0,4.55048 -3.688894,8.239374 -8.239374,8.239374 H 5.028222 c -1.7501848,0 -3.16899,-1.418805 -3.16899,-3.16899 z m 5.704182,4.436586 c -0.3500369,0 -0.633798,-0.2837611 -0.633798,-0.633798 0,-0.3500369 0.2837611,-0.633798 0.633798,-0.633798 h 8.873172 c 0.350037,0 0.633798,0.2837611 0.633798,0.633798 0,0.3500369 -0.283761,0.633798 -0.633798,0.633798 z m 0,3.802788 c -0.3500369,0 -0.633798,-0.283761 -0.633798,-0.633798 0,-0.350037 0.2837611,-0.633798 0.633798,-0.633798 h 8.873172 c 0.350037,0 0.633798,0.283761 0.633798,0.633798 C 17.070384,11.716239 16.786623,12 16.436586,12 Z m 0,3.802788 c -0.3500369,0 -0.633798,-0.283761 -0.633798,-0.633798 0,-0.350037 0.2837611,-0.633798 0.633798,-0.633798 h 6.33798 c 0.350037,0 0.633798,0.283761 0.633798,0.633798 0,0.350037 -0.283761,0.633798 -0.633798,0.633798 z"
     id="path2"
     style="fill:#53b56a;stroke-width:1.2676;fill-opacity:1" />
</svg>
