<?xml version="1.0" encoding="UTF-8" standalone="no"?>
<svg
   viewBox="0 0 24 24"
   version="1.1"
   id="svg13"
   sodipodi:docname="newNote-black.svg"
   inkscape:version="1.2.2 (b0a8486541, 2022-12-01)"
   xmlns:inkscape="http://www.inkscape.org/namespaces/inkscape"
   xmlns:sodipodi="http://sodipodi.sourceforge.net/DTD/sodipodi-0.dtd"
   xmlns="http://www.w3.org/2000/svg"
   xmlns:svg="http://www.w3.org/2000/svg"
   xmlns:rdf="http://www.w3.org/1999/02/22-rdf-syntax-ns#"
   xmlns:cc="http://creativecommons.org/ns#"
   xmlns:dc="http://purl.org/dc/elements/1.1/">
  <defs
     id="defs17" />
  <sodipodi:namedview
     id="namedview15"
     pagecolor="#505050"
     bordercolor="#eeeeee"
     borderopacity="1"
     inkscape:showpageshadow="0"
     inkscape:pageopacity="0"
     inkscape:pagecheckerboard="0"
     inkscape:deskcolor="#505050"
     showgrid="false"
     inkscape:zoom="23.541667"
     inkscape:cx="12.021239"
     inkscape:cy="12.042478"
     inkscape:window-width="674"
     inkscape:window-height="736"
     inkscape:window-x="4"
     inkscape:window-y="28"
     inkscape:window-maximized="0"
     inkscape:current-layer="svg13" />
  <title
     id="title2">96.Add Anchor Point</title>
  <g
     id="_96.Add_Anchor_Point"
     data-name="96.Add Anchor Point"
     style="fill:#f2f2f2">
    <path
       d="M12,24A12,12,0,1,1,24,12,12.013,12.013,0,0,1,12,24ZM12,2A10,10,0,1,0,22,12,10.011,10.011,0,0,0,12,2Z"
       id="path4"
       style="fill:#f2f2f2" />
    <rect
       x="14"
       y="6"
       width="2"
       height="6"
       id="rect6"
       style="fill:#f2f2f2" />
    <rect
       x="12"
       y="8"
       width="6"
       height="2"
       id="rect8"
       style="fill:#f2f2f2" />
    <polygon
       points="18 18 6 18 6 6 11 6 11 8 8 8 8 16 16 16 16 14 18 14 18 18"
       id="polygon10"
       style="fill:#f2f2f2" />
  </g>
  <metadata
     id="metadata193">
    <rdf:RDF>
      <cc:Work
         rdf:about="">
        <dc:title>96.Add Anchor Point</dc:title>
      </cc:Work>
    </rdf:RDF>
  </metadata>
</svg>
