<?xml version="1.0" encoding="UTF-8" standalone="no"?>
<svg
   viewBox="0 0 24 24"
   version="1.1"
   id="svg25"
   sodipodi:docname="settings-dark.svg"
   inkscape:version="1.2.2 (b0a8486541, 2022-12-01)"
   xmlns:inkscape="http://www.inkscape.org/namespaces/inkscape"
   xmlns:sodipodi="http://sodipodi.sourceforge.net/DTD/sodipodi-0.dtd"
   xmlns="http://www.w3.org/2000/svg"
   xmlns:svg="http://www.w3.org/2000/svg"
   xmlns:rdf="http://www.w3.org/1999/02/22-rdf-syntax-ns#"
   xmlns:cc="http://creativecommons.org/ns#"
   xmlns:dc="http://purl.org/dc/elements/1.1/">
  <defs
     id="defs29" />
  <sodipodi:namedview
     id="namedview27"
     pagecolor="#505050"
     bordercolor="#eeeeee"
     borderopacity="1"
     inkscape:showpageshadow="0"
     inkscape:pageopacity="0"
     inkscape:pagecheckerboard="0"
     inkscape:deskcolor="#505050"
     showgrid="false"
     inkscape:zoom="23.541667"
     inkscape:cx="12.021239"
     inkscape:cy="12.042478"
     inkscape:window-width="674"
     inkscape:window-height="736"
     inkscape:window-x="4"
     inkscape:window-y="28"
     inkscape:window-maximized="0"
     inkscape:current-layer="svg25" />
  <title
     id="title2">23.Gear</title>
  <g
     id="_23.Gear"
     data-name="23.Gear"
     style="fill:#f2f2f2">
    <path
       d="M12,24A12,12,0,1,1,24,12,12.013,12.013,0,0,1,12,24ZM12,2A10,10,0,1,0,22,12,10.011,10.011,0,0,0,12,2Z"
       id="path4"
       style="fill:#f2f2f2" />
    <path
       d="M12,17a5,5,0,1,1,5-5A5.006,5.006,0,0,1,12,17Zm0-8a3,3,0,1,0,3,3A3,3,0,0,0,12,9Z"
       id="path6"
       style="fill:#f2f2f2" />
    <rect
       x="11"
       y="5"
       width="2"
       height="3"
       id="rect8"
       style="fill:#f2f2f2" />
    <rect
       x="11"
       y="16"
       width="2"
       height="3"
       id="rect10"
       style="fill:#f2f2f2" />
    <rect
       x="16"
       y="11"
       width="3"
       height="2"
       id="rect12"
       style="fill:#f2f2f2" />
    <rect
       x="5"
       y="11"
       width="3"
       height="2"
       id="rect14"
       style="fill:#f2f2f2" />
    <rect
       x="14.586"
       y="7"
       width="2.828"
       height="2"
       transform="translate(-0.971 13.657) rotate(-45)"
       id="rect16"
       style="fill:#f2f2f2" />
    <rect
       x="7"
       y="6.586"
       width="2"
       height="2.828"
       transform="translate(-3.314 8) rotate(-45)"
       id="rect18"
       style="fill:#f2f2f2" />
    <rect
       x="6.586"
       y="15"
       width="2.828"
       height="2"
       transform="translate(-8.971 10.343) rotate(-45)"
       id="rect20"
       style="fill:#f2f2f2" />
    <rect
       x="15"
       y="14.586"
       width="2"
       height="2.828"
       transform="translate(-6.627 16) rotate(-45)"
       id="rect22"
       style="fill:#f2f2f2" />
  </g>
  <metadata
     id="metadata205">
    <rdf:RDF>
      <cc:Work
         rdf:about="">
        <dc:title>23.Gear</dc:title>
      </cc:Work>
    </rdf:RDF>
  </metadata>
</svg>
