<svg xmlns="http://www.w3.org/2000/svg" viewBox="0 0 24 24"><title>23.Gear</title><g id="_23.Gear" data-name="23.Gear"><path d="M12,24A12,12,0,1,1,24,12,12.013,12.013,0,0,1,12,24ZM12,2A10,10,0,1,0,22,12,10.011,10.011,0,0,0,12,2Z"/><path d="M12,17a5,5,0,1,1,5-5A5.006,5.006,0,0,1,12,17Zm0-8a3,3,0,1,0,3,3A3,3,0,0,0,12,9Z"/><rect x="11" y="5" width="2" height="3"/><rect x="11" y="16" width="2" height="3"/><rect x="16" y="11" width="3" height="2"/><rect x="5" y="11" width="3" height="2"/><rect x="14.586" y="7" width="2.828" height="2" transform="translate(-0.971 13.657) rotate(-45)"/><rect x="7" y="6.586" width="2" height="2.828" transform="translate(-3.314 8) rotate(-45)"/><rect x="6.586" y="15" width="2.828" height="2" transform="translate(-8.971 10.343) rotate(-45)"/><rect x="15" y="14.586" width="2" height="2.828" transform="translate(-6.627 16) rotate(-45)"/></g></svg>