<?xml version="1.0" encoding="UTF-8" standalone="no"?>
<!-- Generator: Adobe Illustrator 23.0.1, SVG Export Plug-In . SVG Version: 6.00 Build 0)  -->

<svg
   version="1.1"
   x="0px"
   y="0px"
   viewBox="0 0 512 512"
   style="enable-background:new 0 0 512 512;"
   xml:space="preserve"
   id="svg14"
   sodipodi:docname="3dots-dark.svg"
   inkscape:version="1.2.2 (b0a8486541, 2022-12-01)"
   xmlns:inkscape="http://www.inkscape.org/namespaces/inkscape"
   xmlns:sodipodi="http://sodipodi.sourceforge.net/DTD/sodipodi-0.dtd"
   xmlns="http://www.w3.org/2000/svg"
   xmlns:svg="http://www.w3.org/2000/svg"><defs
   id="defs18" /><sodipodi:namedview
   id="namedview16"
   pagecolor="#505050"
   bordercolor="#eeeeee"
   borderopacity="1"
   inkscape:showpageshadow="0"
   inkscape:pageopacity="0"
   inkscape:pagecheckerboard="0"
   inkscape:deskcolor="#505050"
   showgrid="false"
   inkscape:zoom="1.6328125"
   inkscape:cx="256"
   inkscape:cy="256.30622"
   inkscape:window-width="1920"
   inkscape:window-height="1017"
   inkscape:window-x="0"
   inkscape:window-y="32"
   inkscape:window-maximized="1"
   inkscape:current-layer="svg14" />
<style
   type="text/css"
   id="style2">
	.st0{fill:#333333;}
</style>
<g
   id="Layer_1">
</g>
<g
   id="Layer_2"
   style="fill:#f9f9f9">
	<g
   id="g11"
   style="fill:#f9f9f9">
		<path
   class="st0"
   d="M256,27.5c-36.41,0-66.03,29.62-66.03,66.03s29.62,66.03,66.03,66.03s66.03-29.62,66.03-66.03    S292.41,27.5,256,27.5z M256,127.55c-18.76,0-34.03-15.26-34.03-34.03c0-18.76,15.26-34.03,34.03-34.03s34.03,15.26,34.03,34.03    C290.03,112.29,274.76,127.55,256,127.55z"
   id="path5"
   style="fill:#f9f9f9" />
		<path
   class="st0"
   d="M256,189.97c-36.41,0-66.03,29.62-66.03,66.03s29.62,66.03,66.03,66.03s66.03-29.62,66.03-66.03    S292.41,189.97,256,189.97z M256,290.03c-18.76,0-34.03-15.26-34.03-34.03s15.26-34.03,34.03-34.03s34.03,15.26,34.03,34.03    S274.76,290.03,256,290.03z"
   id="path7"
   style="fill:#f9f9f9" />
		<path
   class="st0"
   d="M256,352.45c-36.41,0-66.03,29.62-66.03,66.03S219.59,484.5,256,484.5s66.03-29.62,66.03-66.03    S292.41,352.45,256,352.45z M256,452.5c-18.76,0-34.03-15.26-34.03-34.03c0-18.76,15.26-34.03,34.03-34.03    s34.03,15.26,34.03,34.03C290.03,437.24,274.76,452.5,256,452.5z"
   id="path9"
   style="fill:#f9f9f9" />
	</g>
</g>
</svg>
