<?xml version="1.0" encoding="UTF-8" standalone="no"?>
<!-- Generator: Adobe Illustrator 23.0.1, SVG Export Plug-In . SVG Version: 6.00 Build 0)  -->

<svg
   version="1.1"
   x="0px"
   y="0px"
   viewBox="0 0 512 512"
   style="enable-background:new 0 0 512 512;"
   xml:space="preserve"
   id="svg12"
   sodipodi:docname="back2-dark.svg"
   inkscape:version="1.2.2 (b0a8486541, 2022-12-01)"
   xmlns:inkscape="http://www.inkscape.org/namespaces/inkscape"
   xmlns:sodipodi="http://sodipodi.sourceforge.net/DTD/sodipodi-0.dtd"
   xmlns="http://www.w3.org/2000/svg"
   xmlns:svg="http://www.w3.org/2000/svg"><defs
   id="defs16" /><sodipodi:namedview
   id="namedview14"
   pagecolor="#505050"
   bordercolor="#eeeeee"
   borderopacity="1"
   inkscape:showpageshadow="0"
   inkscape:pageopacity="0"
   inkscape:pagecheckerboard="0"
   inkscape:deskcolor="#505050"
   showgrid="false"
   inkscape:zoom="1.6328125"
   inkscape:cx="256"
   inkscape:cy="256.30622"
   inkscape:window-width="1920"
   inkscape:window-height="1017"
   inkscape:window-x="0"
   inkscape:window-y="32"
   inkscape:window-maximized="1"
   inkscape:current-layer="svg12" />
<style
   type="text/css"
   id="style2">
	.st0{fill:#333333;}
</style>
<g
   id="Layer_1">
</g>
<g
   id="Layer_2"
   style="fill:#f9f9f9">
	<g
   id="g9"
   style="fill:#f9f9f9">
		<path
   class="st0"
   d="M256,27.5c-61.03,0-118.42,23.77-161.57,66.93C51.27,137.58,27.5,194.97,27.5,256s23.77,118.42,66.93,161.57    C137.58,460.73,194.97,484.5,256,484.5s118.42-23.77,161.57-66.93C460.73,374.42,484.5,317.03,484.5,256    s-23.77-118.42-66.93-161.57C374.42,51.27,317.03,27.5,256,27.5z M256,452.5c-108.35,0-196.5-88.15-196.5-196.5    S147.65,59.5,256,59.5S452.5,147.65,452.5,256S364.35,452.5,256,452.5z"
   id="path5"
   style="fill:#f9f9f9" />
		<path
   class="st0"
   d="M324.16,131.16c-6.25-6.25-16.38-6.25-22.63,0L187.84,244.85c-3,3-4.69,7.08-4.69,11.33s1.7,8.32,4.7,11.32    l113.69,113.36c3.12,3.11,7.21,4.67,11.3,4.67c4.1,0,8.21-1.57,11.33-4.7c6.24-6.26,6.22-16.39-0.03-22.63L221.8,256.15    l102.36-102.36C330.41,147.54,330.41,137.41,324.16,131.16z"
   id="path7"
   style="fill:#f9f9f9" />
	</g>
</g>
</svg>
