<?xml version="1.0" encoding="UTF-8" standalone="no"?>
<!-- Generator: Adobe Illustrator 23.0.1, SVG Export Plug-In . SVG Version: 6.00 Build 0)  -->

<svg
   version="1.1"
   x="0px"
   y="0px"
   viewBox="0 0 512 512"
   style="enable-background:new 0 0 512 512;"
   xml:space="preserve"
   id="svg14"
   sodipodi:docname="delete-dark.svg"
   inkscape:version="1.2.2 (b0a8486541, 2022-12-01)"
   xmlns:inkscape="http://www.inkscape.org/namespaces/inkscape"
   xmlns:sodipodi="http://sodipodi.sourceforge.net/DTD/sodipodi-0.dtd"
   xmlns="http://www.w3.org/2000/svg"
   xmlns:svg="http://www.w3.org/2000/svg"><defs
   id="defs18" /><sodipodi:namedview
   id="namedview16"
   pagecolor="#505050"
   bordercolor="#eeeeee"
   borderopacity="1"
   inkscape:showpageshadow="0"
   inkscape:pageopacity="0"
   inkscape:pagecheckerboard="0"
   inkscape:deskcolor="#505050"
   showgrid="false"
   inkscape:zoom="1.6328125"
   inkscape:cx="256"
   inkscape:cy="256.30622"
   inkscape:window-width="1920"
   inkscape:window-height="1017"
   inkscape:window-x="0"
   inkscape:window-y="32"
   inkscape:window-maximized="1"
   inkscape:current-layer="svg14" />
<style
   type="text/css"
   id="style2">
	.st0{fill:#333333;}
</style>
<g
   id="Layer_1">
</g>
<g
   id="Layer_2"
   style="fill:#f9f9f9">
	<g
   id="g11"
   style="fill:#f9f9f9">
		<path
   class="st0"
   d="M171.77,484.5h168.46c38.84,0,70.43-31.6,70.43-70.43V208.76c23.42-8.42,40.21-30.85,40.21-57.13v-1.27    c0-33.47-27.23-60.7-60.7-60.7h-64.86C321.52,54.76,291.89,27.5,256,27.5s-65.52,27.26-69.31,62.16h-64.86    c-33.47,0-60.7,27.23-60.7,60.7v1.27c0,26.28,16.79,48.71,40.21,57.13v205.31C101.34,452.9,132.93,484.5,171.77,484.5z     M378.66,414.07c0,21.19-17.24,38.43-38.43,38.43H171.77c-21.19,0-38.43-17.24-38.43-38.43V212.32h245.33V414.07z M256,59.5    c18.21,0,33.45,12.97,36.96,30.16h-73.93C222.55,72.47,237.79,59.5,256,59.5z M93.13,150.36c0-15.83,12.87-28.7,28.7-28.7h80.45    h107.45h80.45c15.82,0,28.7,12.87,28.7,28.7v1.27c0,15.83-12.87,28.7-28.7,28.7H121.83c-15.82,0-28.7-12.87-28.7-28.7V150.36z"
   id="path5"
   style="fill:#f9f9f9" />
		<path
   class="st0"
   d="M214.6,407.05c8.84,0,16-7.16,16-16V273.78c0-8.84-7.16-16-16-16s-16,7.16-16,16v117.27    C198.6,399.88,205.76,407.05,214.6,407.05z"
   id="path7"
   style="fill:#f9f9f9" />
		<path
   class="st0"
   d="M297.4,407.05c8.84,0,16-7.16,16-16V273.78c0-8.84-7.16-16-16-16s-16,7.16-16,16v117.27    C281.4,399.88,288.57,407.05,297.4,407.05z"
   id="path9"
   style="fill:#f9f9f9" />
	</g>
</g>
</svg>
