<?xml version="1.0" encoding="UTF-8" standalone="no"?>
<!-- Generator: Adobe Illustrator 23.0.1, SVG Export Plug-In . SVG Version: 6.00 Build 0)  -->

<svg
   version="1.1"
   x="0px"
   y="0px"
   viewBox="0 0 512 512"
   style="enable-background:new 0 0 512 512;"
   xml:space="preserve"
   id="svg16"
   sodipodi:docname="hamburguer-dark.svg"
   inkscape:version="1.2.2 (b0a8486541, 2022-12-01)"
   xmlns:inkscape="http://www.inkscape.org/namespaces/inkscape"
   xmlns:sodipodi="http://sodipodi.sourceforge.net/DTD/sodipodi-0.dtd"
   xmlns="http://www.w3.org/2000/svg"
   xmlns:svg="http://www.w3.org/2000/svg"><defs
   id="defs20" /><sodipodi:namedview
   id="namedview18"
   pagecolor="#505050"
   bordercolor="#eeeeee"
   borderopacity="1"
   inkscape:showpageshadow="0"
   inkscape:pageopacity="0"
   inkscape:pagecheckerboard="0"
   inkscape:deskcolor="#505050"
   showgrid="false"
   inkscape:zoom="1.6328125"
   inkscape:cx="256"
   inkscape:cy="256.30622"
   inkscape:window-width="1920"
   inkscape:window-height="1017"
   inkscape:window-x="0"
   inkscape:window-y="32"
   inkscape:window-maximized="1"
   inkscape:current-layer="svg16" />
<style
   type="text/css"
   id="style2">
	.st0{fill:#333333;}
</style>
<g
   id="Layer_1">
</g>
<g
   id="Layer_2"
   style="fill:#f9f9f9">
	<g
   id="g13"
   style="fill:#f9f9f9">
		<path
   class="st0"
   d="M368.98,74.55H143.02c-8.84,0-16,7.16-16,16s7.16,16,16,16h225.96c8.84,0,16-7.16,16-16    S377.82,74.55,368.98,74.55z"
   id="path5"
   style="fill:#f9f9f9" />
		<path
   class="st0"
   d="M368.98,184.85H143.02c-8.84,0-16,7.16-16,16s7.16,16,16,16h225.96c8.84,0,16-7.16,16-16    S377.82,184.85,368.98,184.85z"
   id="path7"
   style="fill:#f9f9f9" />
		<path
   class="st0"
   d="M368.98,295.15H143.02c-8.84,0-16,7.16-16,16s7.16,16,16,16h225.96c8.84,0,16-7.16,16-16    S377.82,295.15,368.98,295.15z"
   id="path9"
   style="fill:#f9f9f9" />
		<path
   class="st0"
   d="M368.98,405.45H143.02c-8.84,0-16,7.16-16,16s7.16,16,16,16h225.96c8.84,0,16-7.16,16-16    S377.82,405.45,368.98,405.45z"
   id="path11"
   style="fill:#f9f9f9" />
	</g>
</g>
</svg>
