<?xml version="1.0" encoding="UTF-8" standalone="no"?>
<!-- Generator: Adobe Illustrator 23.0.1, SVG Export Plug-In . SVG Version: 6.00 Build 0)  -->

<svg
   version="1.1"
   x="0px"
   y="0px"
   viewBox="0 0 512 512"
   style="enable-background:new 0 0 512 512;"
   xml:space="preserve"
   id="svg14"
   sodipodi:docname="hamburguer2-dark.svg"
   inkscape:version="1.2.2 (b0a8486541, 2022-12-01)"
   xmlns:inkscape="http://www.inkscape.org/namespaces/inkscape"
   xmlns:sodipodi="http://sodipodi.sourceforge.net/DTD/sodipodi-0.dtd"
   xmlns="http://www.w3.org/2000/svg"
   xmlns:svg="http://www.w3.org/2000/svg"><defs
   id="defs18" /><sodipodi:namedview
   id="namedview16"
   pagecolor="#505050"
   bordercolor="#eeeeee"
   borderopacity="1"
   inkscape:showpageshadow="0"
   inkscape:pageopacity="0"
   inkscape:pagecheckerboard="0"
   inkscape:deskcolor="#505050"
   showgrid="false"
   inkscape:zoom="1.6328125"
   inkscape:cx="256"
   inkscape:cy="256.30622"
   inkscape:window-width="1920"
   inkscape:window-height="1017"
   inkscape:window-x="0"
   inkscape:window-y="32"
   inkscape:window-maximized="1"
   inkscape:current-layer="svg14" />
<style
   type="text/css"
   id="style2">
	.st0{fill:#333333;}
</style>
<g
   id="Layer_1">
</g>
<g
   id="Layer_2"
   style="fill:#f9f9f9">
	<g
   id="g11"
   style="fill:#f9f9f9">
		<path
   class="st0"
   d="M468.5,70.59H222.11c-8.84,0-16,7.16-16,16v65.6c0,8.84,7.16,16,16,16H468.5c8.84,0,16-7.16,16-16v-65.6    C484.5,77.76,477.34,70.59,468.5,70.59z M452.5,136.2H238.11v-33.6H452.5V136.2z"
   id="path5"
   style="fill:#f9f9f9" />
		<path
   class="st0"
   d="M379.19,207.2H132.81c-8.84,0-16,7.16-16,16v65.6c0,8.84,7.16,16,16,16h246.39c8.84,0,16-7.16,16-16v-65.6    C395.19,214.36,388.03,207.2,379.19,207.2z M363.19,272.8H148.81v-33.6h214.39V272.8z"
   id="path7"
   style="fill:#f9f9f9" />
		<path
   class="st0"
   d="M43.5,441.41h246.39c8.84,0,16-7.16,16-16v-65.6c0-8.84-7.16-16-16-16H43.5c-8.84,0-16,7.16-16,16v65.6    C27.5,434.24,34.66,441.41,43.5,441.41z M59.5,375.8h214.39v33.6H59.5V375.8z"
   id="path9"
   style="fill:#f9f9f9" />
	</g>
</g>
</svg>
