<?xml version="1.0" encoding="UTF-8" standalone="no"?>
<!-- Generator: Adobe Illustrator 23.0.1, SVG Export Plug-In . SVG Version: 6.00 Build 0)  -->

<svg
   version="1.1"
   x="0px"
   y="0px"
   viewBox="0 0 512 512"
   style="enable-background:new 0 0 512 512;"
   xml:space="preserve"
   id="svg10"
   sodipodi:docname="save-dark.svg"
   inkscape:version="1.2.2 (b0a8486541, 2022-12-01)"
   xmlns:inkscape="http://www.inkscape.org/namespaces/inkscape"
   xmlns:sodipodi="http://sodipodi.sourceforge.net/DTD/sodipodi-0.dtd"
   xmlns="http://www.w3.org/2000/svg"
   xmlns:svg="http://www.w3.org/2000/svg"><defs
   id="defs14" /><sodipodi:namedview
   id="namedview12"
   pagecolor="#505050"
   bordercolor="#eeeeee"
   borderopacity="1"
   inkscape:showpageshadow="0"
   inkscape:pageopacity="0"
   inkscape:pagecheckerboard="0"
   inkscape:deskcolor="#505050"
   showgrid="false"
   inkscape:zoom="1.6328125"
   inkscape:cx="256"
   inkscape:cy="256.30622"
   inkscape:window-width="1920"
   inkscape:window-height="1017"
   inkscape:window-x="0"
   inkscape:window-y="32"
   inkscape:window-maximized="1"
   inkscape:current-layer="svg10" />
<style
   type="text/css"
   id="style2">
	.st0{fill:#333333;}
</style>
<g
   id="Layer_1">
</g>
<g
   id="Layer_2"
   style="fill:#f9f9f9">
	<g
   id="g7"
   style="fill:#f9f9f9">
		<path
   class="st0"
   d="M322.02,69.34H256h-96H85.34c-8.84,0-16,7.16-16,16V294.7v69.45v62.51c0,8.84,7.16,16,16,16h341.32    c8.84,0,16-7.16,16-16v-62.51V294.7V186.45c0-4.34-1.76-8.49-4.88-11.51L333.14,73.83C330.16,70.95,326.17,69.34,322.02,69.34z     M240,101.34v98.72h-64v-98.72H240z M410.66,348.15H101.34V310.7h309.32V348.15z M101.34,410.66v-30.51h309.32v30.51H101.34z     M410.66,278.7H101.34V101.34H144v114.72c0,8.84,7.16,16,16,16h96c8.84,0,16-7.16,16-16V101.34h43.55l95.11,91.9V278.7z"
   id="path5"
   style="fill:#f9f9f9" />
	</g>
</g>
</svg>
